Coordinates
version=1
nRows=16
nColumns=36
inDegrees=yes

Units are S.I. units (second, meters, Newtons, ...)
If the header above contains a line with 'inDegrees', this indicates whether rotational values are in degrees (yes) or radians (no).

endheader
time	pelvis_tilt	pelvis_list	pelvis_rotation	pelvis_tx	pelvis_ty	pelvis_tz	hip_flexion_r	hip_adduction_r	hip_rotation_r	knee_angle_r	knee_angle_r_beta	ankle_angle_r	subtalar_angle_r	mtp_angle_r	hip_flexion_l	hip_adduction_l	hip_rotation_l	knee_angle_l	knee_angle_l_beta	ankle_angle_l	subtalar_angle_l	mtp_angle_l	lumbar_extension	lumbar_bending	lumbar_rotation	arm_flex_r	arm_add_r	arm_rot_r	elbow_flex_r	pro_sup_r	arm_flex_l	arm_add_l	arm_rot_l	elbow_flex_l	pro_sup_l
      6.85000000	      1.43943959	      1.71078845	      5.49596584	      0.03429559	      0.80471958	      0.12797176	     -2.92074611	      0.42464505	    -10.07617176	      0.61859777	      0.01079657	      6.92774403	     -2.43455336	     -7.49999987	     -0.87867888	      1.08682768	     -2.28650611	      0.53066135	      0.00926179	     11.17622613	      3.50504788	     -7.49999987	      2.87916075	      0.51133629	      4.69848346	     57.58852124	     18.08474258	     67.44289662	    126.63233017	    107.20090471	     39.53276947	     21.64877470	     53.97564534	    148.36579325	     98.96557405
      6.86666670	      1.36740578	      1.62559550	      5.53487074	      0.03259737	      0.80060622	      0.12761575	     -2.77255114	      0.45053446	    -10.05545136	      0.68323556	      0.01192471	      7.15900838	     -2.30410257	     -7.49999987	     -0.90613603	      1.05736820	     -2.31407568	      0.56846333	      0.00992156	     11.50391443	      3.65351882	     -7.49999987	      2.89671682	      0.71831791	      4.35608725	     57.79266412	     18.33514844	     67.49902123	    126.77505145	    107.20367599	     40.00792346	     21.41637371	     53.03598233	    148.23131957	     98.85295689
      6.88333330	      1.36082492	      1.53443671	      5.49532639	      0.03318977	      0.80077368	      0.12729824	     -2.70009660	      0.49785593	    -10.01518535	      0.72365013	      0.01263008	      7.10746645	     -2.51511951	     -7.49999987	     -0.77344624	      1.00081463	     -2.30007346	      0.55409168	      0.00967072	     11.51001944	      3.57096816	     -7.49999987	      2.85495623	      0.92301874	      3.88837443	     57.78444045	     18.69762651	     67.67492316	    127.00989266	    105.67157025	     40.14799317	     20.76493783	     51.66077975	    147.86905003	     97.35759299
      6.90000000	      1.36761955	      1.51918261	      5.37922523	      0.03172193	      0.80108836	      0.12758338	     -2.57703485	      0.47180326	     -9.85650449	      0.78753180	      0.01374502	      7.02698624	     -2.59615138	     -7.49999987	     -0.63505926	      1.01014192	     -2.37613061	      0.52622537	      0.00918437	     11.55127681	      3.62817781	     -7.49999987	      2.81064173	      1.07714720	      3.61468425	     57.80376311	     18.90594088	     67.74677222	    126.98673701	    107.15323895	     40.01893288	     20.31452886	     50.23839764	    147.51734565	     97.81828568
      6.91666670	      1.37419456	      1.45901349	      5.35079710	      0.02880529	      0.80075063	      0.12864182	     -2.40550873	      0.51502492	     -9.80854770	      0.86206735	      0.01504591	      7.01750085	     -2.70351637	     -7.49999987	     -0.53704827	      0.92862338	     -2.22267464	      0.52024169	      0.00907993	     11.47586757	      3.34988883	     -7.49999987	      2.73624764	      1.20061925	      3.31205911	     57.86462824	     19.04063247	     67.63849064	    126.80082529	    106.29607437	     39.78694958	     19.92533263	     49.25865422	    147.20961468	     96.33247799
      6.93333330	      1.34256680	      1.37743482	      5.16495301	      0.02868925	      0.80052858	      0.12877957	     -2.13855360	      0.59281519	     -9.34651454	      0.94847854	      0.01655407	      6.74874698	     -3.32705359	     -7.49999987	     -0.35731085	      0.81561359	     -2.68835705	      0.51494408	      0.00898747	     11.53366344	      3.78833927	     -7.49999987	      2.71729424	      1.30803304	      3.30781769	     57.82488931	     18.99700450	     67.46273001	    126.82187871	    106.46472145	     39.46797840	     19.81994313	     48.77972673	    146.98010479	     96.14863143
      6.95000000	      1.37924213	      1.27181745	      5.01046936	      0.02606471	      0.79901576	      0.12945193	     -1.91072651	      0.69881302	     -9.32056224	      1.09900788	      0.01918131	      6.71951082	     -3.33804110	     -7.49999987	     -0.26375665	      0.65719342	     -2.70158982	      0.50959658	      0.00889414	     11.50028220	      3.69455808	     -7.49999987	      2.54541502	      1.42682682	      3.11498100	     58.01709319	     19.07717410	     67.32341731	    126.83463025	    106.46612230	     39.35188716	     19.66071917	     48.61539955	    146.67346730	     96.16596431
      6.96666670	      1.33930475	      1.20761172	      4.90893064	      0.02577251	      0.80077929	      0.13128386	     -1.70544049	      0.80474292	     -9.07576103	      1.16593653	      0.02034943	      6.34098516	     -3.87906865	     -7.49999987	     -0.09538709	      0.51291779	     -2.87401605	      0.52449707	      0.00915420	     11.32769143	      3.73535164	     -7.49999987	      2.63472986	      1.42594036	      3.06384173	     57.85111887	     19.02583378	     67.17340900	    126.71526693	    105.00412534	     38.88211012	     19.79570560	     48.42644789	    146.85986340	     94.84358522
      6.98333330	      1.29695766	      1.17526226	      4.83865547	      0.02540624	      0.79917339	      0.13220062	     -1.48441576	      0.87071873	     -9.07459577	      1.28281170	      0.02238929	      6.24008636	     -4.10550950	     -7.49999987	      0.03660529	      0.40149132	     -2.52787011	      0.53289986	      0.00930086	     11.00631198	      3.04905982	     -7.49999987	      2.73604660	      1.39781356	      2.89346192	     57.64130255	     18.94985515	     67.05056838	    126.44082253	    105.99071444	     38.72683035	     19.86341776	     47.76737769	    147.14217997	     95.22948350
      7.00000000	      1.41789557	      1.10152971	      4.65491219	      0.02492523	      0.80241158	      0.13461804	     -1.45171225	      1.04983913	     -8.98625477	      1.36189252	      0.02376951	      6.22669480	     -4.07533915	     -7.49999987	     -0.00309253	      0.17153278	     -2.74911307	      0.56762331	      0.00990690	     10.81456660	      3.07078529	     -7.49999987	      2.53835068	      1.39152244	      2.90395394	     57.36848376	     18.86156852	     67.08271133	    126.47818775	    106.01392358	     38.21191812	     19.95939411	     47.85081199	    147.31361896	     95.26509921
      7.01666670	      1.44499098	      1.16095735	      4.45300134	      0.02133390	      0.80126987	      0.13660538	     -1.31247006	      1.10282119	     -8.94651490	      1.35753395	      0.02369344	      6.08310174	     -4.10218812	     -7.49999987	      0.18508160	      0.08275982	     -2.98155666	      0.61257162	      0.01069139	     10.36832753	      3.01217591	     -7.49999987	      2.31364766	      1.26624387	      3.00520295	     57.22473792	     18.57611547	     66.96372747	    126.45179939	    106.03891397	     37.84637401	     20.06795876	     47.96838360	    147.46695956	     95.31910699
      7.03333330	      1.43760813	      1.17799605	      4.33409265	      0.02349580	      0.79916843	      0.13859596	     -1.23295533	      1.21494980	     -8.70407500	      1.40941442	      0.02459892	      5.96847169	     -4.16279274	     -7.49999987	      0.27605669	     -0.07966217	     -2.99272585	      0.67747876	      0.01182423	     10.00947692	      2.90833710	     -7.49999987	      2.38564001	      1.13236793	      3.36057485	     57.06834805	     18.13702161	     66.29145106	    126.35582858	    106.76666088	     37.72684456	     20.48327119	     48.27255064	    147.61879657	     95.42184792
      7.05000000	      1.45565116	      1.20735376	      4.19666602	      0.02054491	      0.79932726	      0.14131085	     -1.14147676	      1.33983436	     -8.41707270	      1.46387906	      0.02554951	      6.13227527	     -4.37167909	     -7.49999987	      0.49673322	     -0.22026270	     -2.94070975	      0.76646880	      0.01337740	      9.70548735	      2.54416089	     -7.49999987	      2.25012768	      1.04379353	      3.52105069	     57.09529709	     17.80925593	     65.82645472	    126.31934715	    106.63930123	     37.64184401	     20.67556779	     48.21029815	    147.53837594	     95.77185891
      7.06666670	      1.55233898	      1.29407591	      4.03873500	      0.02158051	      0.80172386	      0.14342770	     -1.22360244	      1.41879996	     -8.39636727	      1.43990592	      0.02513110	      6.46597515	     -3.72877586	     -7.49999987	      0.57360866	     -0.35707918	     -3.46056611	      0.91664264	      0.01599843	      9.36150687	      3.02912957	     -7.49999987	      2.19000777	      0.80793394	      3.80483824	     56.91253980	     17.46686483	     65.72035838	    126.44864270	    105.58467787	     37.52918402	     20.97250620	     48.46375179	    147.69079973	     94.06225128
      7.08333330	      1.50193163	      1.43295266	      3.99402499	      0.01823104	      0.79994859	      0.14632798	     -1.12020740	      1.43906520	     -8.15688799	      1.38423283	      0.02415942	      6.56383963	     -3.98231638	     -7.49999987	      0.87982267	     -0.38240099	     -3.00080562	      1.15266775	      0.02011785	      8.77936666	      2.00841170	     -7.49999987	      2.08735541	      0.57530015	      3.90497530	     56.89870700	     17.13575028	     65.30041688	    126.41658038	    106.72535348	     37.49179182	     20.92764394	     48.11629057	    147.58939580	     95.25976027
      7.10000000	      1.58019371	      1.51087772	      3.88374254	      0.02033873	      0.80031426	      0.14859825	     -1.21189795	      1.52268292	     -8.08774163	      1.36465802	      0.02381778	      6.74374903	     -3.70215569	     -7.49999987	      1.00333618	     -0.53289054	     -3.16139693	      1.48911701	      0.02598999	      8.50344005	      1.97295461	     -7.49999987	      1.93747723	      0.42657439	      3.88194219	     56.72207548	     17.05073345	     65.23020345	    126.36720113	    106.28291335	     37.35081846	     20.76212791	     47.30736675	    147.38321734	     95.59807338
